<svg width="30" height="30" viewBox="0 0 30 30" fill="none" xmlns="http://www.w3.org/2000/svg">
<path d="M20.9375 23.4375C11.875 23.4375 6.5625 18.125 6.5625 9.0625C6.5625 8.37214 7.12215 7.81249 7.81251 7.81249L11.6876 7.8125C11.9637 7.8125 12.1871 8.03637 12.2018 8.31212C12.2582 9.37447 12.4829 10.7969 12.876 11.7146C12.99 11.9809 12.9115 12.3096 12.66 12.4533L10.9376 13.4375C10.9376 16.25 13.7501 19.0625 16.8751 19.0625L17.5758 17.4275C17.699 17.1402 18.0569 17.0308 18.3461 17.1496C19.2649 17.5269 20.6487 17.7431 21.6879 17.7983C21.9636 17.813 22.1875 18.0364 22.1875 18.3125V22.1875C22.1875 22.8779 21.6279 23.4375 20.9375 23.4375Z" fill="#E4E6F1"/>
<path d="M10.9376 13.4375L10.5655 12.7863C10.3318 12.9198 10.1876 13.1684 10.1876 13.4375H10.9376ZM16.8751 19.0625V19.8125C17.1751 19.8125 17.4463 19.6337 17.5645 19.3579L16.8751 19.0625ZM12.66 12.4533L13.0321 13.1045L12.66 12.4533ZM17.5758 17.4275L18.2652 17.723L18.2652 17.723L17.5758 17.4275ZM12.876 11.7146L13.5654 11.4193V11.4193L12.876 11.7146ZM12.2018 8.31212L11.4528 8.35187V8.35188L12.2018 8.31212ZM11.6876 7.8125L11.6876 8.5625H11.6876L11.6876 7.8125ZM7.81251 7.81249L7.81251 7.06249H7.81251V7.81249ZM18.3461 17.1496L18.631 16.4558L18.3461 17.1496ZM21.6879 17.7983L21.6481 18.5473L21.6879 17.7983ZM5.8125 9.0625C5.8125 13.7397 7.18616 17.5437 9.82123 20.1788C12.4563 22.8138 16.2603 24.1875 20.9375 24.1875V22.6875C16.5522 22.6875 13.1687 21.4049 10.8819 19.1181C8.59509 16.8313 7.3125 13.4478 7.3125 9.0625H5.8125ZM22.9375 22.1875V18.3125H21.4375V22.1875H22.9375ZM10.1876 13.4375C10.1876 15.0897 11.0071 16.6809 12.2139 17.8446C13.4243 19.0117 15.0885 19.8125 16.8751 19.8125V18.3125C15.5367 18.3125 14.2322 17.707 13.2551 16.7648C12.2744 15.8191 11.6876 14.5978 11.6876 13.4375H10.1876ZM11.3097 14.0887L13.0321 13.1045L12.2879 11.8021L10.5655 12.7863L11.3097 14.0887ZM17.5645 19.3579L18.2652 17.723L16.8865 17.1321L16.1857 18.7671L17.5645 19.3579ZM13.5654 11.4193C13.2226 10.6191 13.0052 9.29769 12.9507 8.27236L11.4528 8.35188C11.5112 9.45125 11.7431 10.9747 12.1865 12.0099L13.5654 11.4193ZM11.6876 7.0625L7.81251 7.06249L7.8125 8.56249L11.6876 8.5625L11.6876 7.0625ZM18.0612 17.8433C19.0914 18.2664 20.5703 18.49 21.6481 18.5473L21.7276 17.0494C20.727 16.9962 19.4385 16.7874 18.631 16.4558L18.0612 17.8433ZM12.9507 8.27236C12.9162 7.62184 12.3856 7.0625 11.6876 7.0625L11.6876 8.5625C11.5419 8.5625 11.4581 8.45089 11.4528 8.35187L12.9507 8.27236ZM22.9375 18.3125C22.9375 17.6145 22.3782 17.0839 21.7276 17.0494L21.6481 18.5473C21.5491 18.542 21.4375 18.4582 21.4375 18.3125H22.9375ZM18.2652 17.723C18.2324 17.7995 18.1738 17.8348 18.1422 17.8456C18.1149 17.855 18.0888 17.8547 18.0612 17.8433L18.631 16.4558C18.0395 16.2129 17.2018 16.3962 16.8865 17.1321L18.2652 17.723ZM20.9375 24.1875C22.0421 24.1875 22.9375 23.2921 22.9375 22.1875H21.4375C21.4375 22.4636 21.2136 22.6875 20.9375 22.6875V24.1875ZM13.0321 13.1045C13.6756 12.7367 13.8 11.9671 13.5654 11.4193L12.1865 12.0099C12.1764 11.9863 12.1738 11.9605 12.1821 11.9304C12.1915 11.8964 12.2215 11.84 12.2879 11.8021L13.0321 13.1045ZM7.3125 9.0625C7.3125 8.78635 7.53636 8.56249 7.81251 8.56249V7.06249C6.70793 7.06249 5.8125 7.95793 5.8125 9.0625H7.3125Z" fill="#160042"/>
</svg>
